<?xml version="1.0" encoding="UTF-8" standalone="no"?>
<!-- Created with Inkscape (http://www.inkscape.org/) -->

<svg
   xmlns:dc="http://purl.org/dc/elements/1.1/"
   xmlns:cc="http://creativecommons.org/ns#"
   xmlns:rdf="http://www.w3.org/1999/02/22-rdf-syntax-ns#"
   xmlns:svg="http://www.w3.org/2000/svg"
   xmlns="http://www.w3.org/2000/svg"
   xmlns:sodipodi="http://sodipodi.sourceforge.net/DTD/sodipodi-0.dtd"
   xmlns:inkscape="http://www.inkscape.org/namespaces/inkscape"
   version="1.1"
   id="svg2"
   width="64"
   height="64"
   viewBox="0 0 64 64"
   sodipodi:docname="favicon.svg"
   inkscape:version="0.92.2 (5c3e80d, 2017-08-06)"
   inkscape:export-filename="C:\Users\Patti Adams\Documents\strony\react-course-projects\indecission-app\public\images\favicon.png"
   inkscape:export-xdpi="358.83246"
   inkscape:export-ydpi="358.83246">
  <metadata
     id="metadata8">
    <rdf:RDF>
      <cc:Work
         rdf:about="">
        <dc:format>image/svg+xml</dc:format>
        <dc:type
           rdf:resource="http://purl.org/dc/dcmitype/StillImage" />
        <dc:title />
      </cc:Work>
    </rdf:RDF>
  </metadata>
  <defs
     id="defs6" />
  <sodipodi:namedview
     pagecolor="#ffffff"
     bordercolor="#666666"
     borderopacity="1"
     objecttolerance="10"
     gridtolerance="10"
     guidetolerance="10"
     inkscape:pageopacity="0"
     inkscape:pageshadow="2"
     inkscape:window-width="1366"
     inkscape:window-height="705"
     id="namedview4"
     showgrid="false"
     inkscape:zoom="7.375"
     inkscape:cx="38.089988"
     inkscape:cy="32.597715"
     inkscape:window-x="-8"
     inkscape:window-y="-8"
     inkscape:window-maximized="1"
     inkscape:current-layer="svg2" />
  <path
     style="opacity:0.91399997;fill:#26a69a;fill-opacity:1;stroke:none;stroke-width:25.35097694;stroke-linejoin:miter;stroke-miterlimit:4;stroke-dasharray:none;stroke-dashoffset:0;stroke-opacity:1"
     d="M 32 2.1699219 A 29.830507 29.830507 0 0 0 2.1699219 32 A 29.830507 29.830507 0 0 0 32 61.830078 A 29.830507 29.830507 0 0 0 61.830078 32 A 29.830507 29.830507 0 0 0 32 2.1699219 z M 27.943359 11.886719 L 34.849609 11.886719 C 36.443125 11.886719 37.683073 12.339195 38.568359 13.242188 C 39.471352 14.14518 39.921875 15.410135 39.921875 17.039062 L 39.921875 24.822266 C 39.921875 26.238724 39.638849 27.370828 39.072266 28.220703 C 38.523388 29.070578 37.549143 29.840727 36.150391 30.53125 L 34.53125 31.355469 L 34.53125 41.580078 L 28.316406 41.580078 L 28.316406 27.822266 L 33.654297 25.033203 L 33.654297 17.863281 L 29.138672 17.863281 L 29.138672 21.394531 L 22.951172 24.609375 L 22.951172 17.039062 C 22.951172 15.39243 23.384372 14.127474 24.251953 13.242188 C 25.119534 12.339195 26.349844 11.886719 27.943359 11.886719 z M 28.316406 43.492188 L 34.53125 43.492188 L 34.53125 49.626953 L 28.316406 49.626953 L 28.316406 43.492188 z "
     id="path4506" />
</svg>
